<svg width="1440" height="5000" viewBox="0 0 1440 5000" fill="none" xmlns="http://www.w3.org/2000/svg">
<g clip-path="url(#clip0_1_6)">
<rect width="1440" height="5000" fill="white"/>
<path d="M-45 4628L130 4657.5L1525 4628V5025.5H-45V4628Z" fill="white"/>
<path d="M-90.5 4516L163.5 4492H1485.5V4618C1119.5 4773.5 830.5 4787.5 687 4787.5C496 4787.5 101.333 4689 -72.5 4632L-90.5 4516Z" fill="#FFEFA7"/>
<path d="M-49 4335H179L1481.5 4392V4523.5C1456.67 4517.67 1385.7 4519 1300.5 4571C1247.82 4603.15 1181.13 4650.64 1116 4673C1050.07 4695.63 985.881 4692.98 964 4697C920.5 4705 864 4657.5 773.5 4657.5C557 4699 478 4673 403.5 4673C336.5 4673 95.1667 4616.67 -37.5 4571L-49 4335Z" fill="#FFC03F"/>
<path d="M-65 4248H96.5L1531 4321V4429L415 4354.5C227.156 4350.69 68.4053 4355.04 -65 4354.5V4248Z" fill="#FA9A08"/>
<path d="M-65 4177.5L116 4155.5L1556.5 4201C1640.5 4285.67 1786.4 4442.8 1698 4394C1609.6 4345.2 496.5 4301.33 -49 4285.5L-65 4177.5Z" fill="#FFC85B"/>
<path d="M-59 3898.5H106.5L1456.5 3961L1503.5 4249C1366.17 4242.33 960.5 4215.25 901 4209C748.6 4193 197.5 4215.67 -59 4229V3898.5Z" fill="#FF9801"/>
<path d="M-60.5 3837L144.5 3823L1481.5 3873V3986.5C1291.67 3981 892.2 3966.4 813 3952C733.8 3937.6 197.667 3936.67 -60.5 3938V3837Z" fill="#FFC75B"/>
<path d="M-78.5 3794L33 3778L1501.5 3742C1513.5 3784.5 1528.1 3871.7 1490.5 3880.5C1443.5 3891.5 1122 3873 1034 3858.5C963.6 3846.9 263 3853.67 -78.5 3858.5V3794Z" fill="#FF930F"/>
<path d="M1456 2923L1188.5 2959L1176.5 2983H1456V2923Z" fill="#FB051C"/>
<path d="M435.5 2924.5H-19.5L-12 2792.5L435.5 2924.5Z" fill="#FE0120"/>
<path d="M-96.5 3555H112L1564.5 3583.5C1575.83 3645.83 1586.7 3773.8 1539.5 3787C1480.5 3803.5 703.5 3794 653 3787C612.6 3781.4 136.5 3802.67 -96.5 3814V3555Z" fill="#FD641A"/>
<path d="M-94.5 3377L229 3389.5L1474.5 3422V3619.5H-66L-94.5 3377Z" fill="#FF4B01"/>
<path d="M1499.5 3355.5L-32 3335.5V3404C70 3416 303.1 3437.8 419.5 3429C535.9 3420.2 1170.33 3443.33 1473 3456L1499.5 3355.5Z" fill="#FE641E"/>
<path d="M-62.5 3274.5L480.5 3253L1525 3289C1552.5 3335.17 1592.8 3424.2 1534 3411C1475.2 3397.8 1281.83 3393.5 1192.5 3393C1017.5 3391.83 634.4 3383.4 502 3359C369.6 3334.6 70.5 3361.83 -62.5 3378.5V3274.5Z" fill="#F84C04"/>
<path d="M953 3025C896.6 3007 269.667 3022 -19.5 3034L-103.5 3047.5C-119.5 3129.5 -141.9 3293.8 -103.5 3295C-55.5 3296.5 88.5 3284.5 313.5 3280C493.5 3276.4 1184.17 3317.5 1507 3338.5C1526 3237 1565.1 3012.2 1519.5 3005C1462.5 2996 1037 3025 953 3025Z" fill="#FE641C"/>
<path d="M878 3025C767.6 3016.6 234.667 3028.5 -18 3035.5H-39L-51 2912.5L367.5 2923L1044.5 2966.5H1490.5C1519.5 2998 1566.1 3055.3 1520.5 3032.5C1463.5 3004 1016 3035.5 878 3025Z" fill="#FC4C01"/>
<path d="M834.5 3186.5C838.9 3124.9 951.333 3103.17 1007 3100C1136.5 3100 1174.5 3112.5 1178 3145C1181.5 3177.5 1167 3256.5 1163.5 3267.5C1160 3278.5 1144 3285.5 1124 3299.5C1108 3310.7 1004.67 3304.17 955 3299.5C913 3287.5 830.1 3248.1 834.5 3186.5Z" fill="#FF824D"/>
<path d="M518 3325C516.4 3299.4 558.333 3280.67 579.5 3274.5C608.5 3274.5 646 3289 646 3325C646 3361 624.5 3393 579.5 3389.5C534.5 3386 520 3357 518 3325Z" fill="#FF814A"/>
<path d="M758 2401C680.4 2395.8 587.667 2500.5 557.5 2541.5C564.667 2605.33 628.7 2738.6 775.5 2761C959 2789 1062.5 2632 1002 2541.5C941.5 2451 855 2407.5 758 2401Z" fill="#FBFF00"/>
<path d="M765 2425.5C557.089 2427.52 543.152 2690.47 344 2736C144.848 2781.53 -138 2736 -138 2736V2226.5L667 1907L1653 2205.5L1668 2736C1668 2736 1379.62 2786.11 1206.5 2736C1004.02 2677.4 975.776 2423.45 765 2425.5Z" fill="#FFD900"/>
<path d="M739 1999.5C531.089 2001.52 517.152 2264.47 318 2310C118.848 2355.53 -164 2310 -164 2310V1800.5L641 1481L1627 1779.5L1642 2310C1642 2310 1353.62 2360.11 1180.5 2310C978.024 2251.4 949.776 1997.45 739 1999.5Z" fill="#FF6D02"/>
<path d="M739 1626.5C531.089 1628.52 517.152 1891.47 318 1937C118.848 1982.53 -164 1937 -164 1937V1427.5L641 1108L1627 1406.5L1642 1937C1642 1937 1353.62 1987.11 1180.5 1937C978.024 1878.4 949.776 1624.45 739 1626.5Z" fill="#FB2F24"/>
<path d="M739 1265.5C531.089 1267.52 517.152 1530.47 318 1576C118.848 1621.53 -164 1576 -164 1576V1066.5L641 747L1627 1045.5L1642 1576C1642 1576 1353.62 1626.11 1180.5 1576C978.024 1517.4 949.776 1263.45 739 1265.5Z" fill="#963170"/>
<path d="M720 892.5C512.089 894.522 498.152 1157.47 299 1203C99.8483 1248.53 -183 1203 -183 1203V693.5L622 374L1608 672.5L1623 1203C1623 1203 1334.62 1253.11 1161.5 1203C959.024 1144.4 930.776 890.45 720 892.5Z" fill="#831B5D"/>
<path d="M720 594.5C512.089 596.522 498.152 859.47 299 905C99.8483 950.53 -183 905 -183 905V395.5L622 76L1608 374.5L1623 905C1623 905 1334.62 955.108 1161.5 905C959.024 846.396 930.776 592.45 720 594.5Z" fill="#1E1C7F"/>
<path d="M153 544C98.9999 598 -22.1667 563.5 -86.5 544L-108 -61H1547.5C1576.5 110.833 1617.1 472.4 1547.5 544C1477.9 615.6 1285.5 574 1255.5 544C1187.83 435.5 946 219.7 720 224.5C437.5 230.5 225 472 153 544Z" fill="#0E0E4F"/>
<path d="M555.54 2530.11C515.204 2530.11 352.209 2626.53 269 2673.74V2848.89L783.478 2967L1336.01 2911.45L1516 2875.42V2530.11H1440.65C1359.35 2491.41 1204.82 2409 1154.5 2409C1046.04 2409 854.077 2698.45 807.071 2682.24C751.894 2663.23 595.876 2530.11 555.54 2530.11Z" fill="#92FCD1"/>
<path d="M96.6364 2460.14C38.8151 2440.14 -1.88806 2489.81 -14.4414 2518.14L-20.9082 2520.14V2757.14L402.48 2876.64C405.65 2850.14 407.426 2787.14 389.166 2747.14C370.907 2707.14 304.463 2703.81 273.524 2707.14C286.711 2687.14 309.662 2643.14 295.968 2627.14C217.985 2487.14 168.913 2485.14 96.6364 2460.14Z" fill="#859B00"/>
<path d="M77.6162 2572.14C22.8381 2584.64 -4.42408 2538.98 -14.4414 2517.64H-30.4183V2794.64L401.72 2880.64C406.792 2856.48 408.947 2794.64 396.774 2794.64C229.701 2816.64 237.386 2772.14 260.21 2699.64C195.541 2739.64 121.388 2727.63 92.8323 2699.64C49.4664 2657.14 92.8323 2604.64 77.6162 2572.14Z" fill="#5E6E00"/>
<path d="M920.02 2929.49C733.414 2955.03 214.921 2805.14 -21 2727V2819.77C4.87519 2828.41 76.4886 2852.78 155.941 2881.11C255.256 2916.52 418.498 2929.49 676.869 2975.37C883.566 3012.08 1276.94 2960.08 1447.8 2929.49C1525.68 2861.99 1634.71 2748.25 1447.8 2833.23C1214.16 2939.47 1153.28 2897.57 920.02 2929.49Z" fill="#859B00"/>
<path d="M920.02 2929.49C733.414 2955.03 214.921 2805.14 -21 2727V2819.77C4.87519 2828.41 76.4886 2852.78 155.941 2881.11C255.256 2916.52 418.498 2929.49 676.869 2975.37C883.566 3012.08 1276.94 2960.08 1447.8 2929.49C1525.68 2861.99 1634.71 2748.25 1447.8 2833.23C1214.16 2939.47 1153.28 2897.57 920.02 2929.49Z" fill="#859B00"/>
<path d="M246.312 2123.16C128.914 2082.53 48.3635 2073.84 22.7628 2074.58H-79V1888.35L89.4161 1874L342.589 1970.79C425.791 1941.35 590.934 1893.36 585.887 1936.93C580.84 1980.51 539.739 2051.21 515.668 2074.58C476.992 2112.12 363.709 2163.79 246.312 2123.16Z" fill="#435501"/>
<path d="M319.172 1897.14C334.084 2002.34 100.187 2152.98 -18.6258 2215.14L46.8035 2237.64C73.305 2248.31 153.773 2236.64 263.633 2104.64C373.494 1972.64 373.57 1880.31 359.875 1850.64C340.094 1822.31 304.26 1791.94 319.172 1897.14Z" fill="#511B01"/>
<path d="M68.8669 1831.14C57.9113 1939.14 4.19839 1995.48 -21.2886 2010.14H-57.8073V2156.14C-43.2252 2152.81 -0.975098 2130.94 51.3684 2070.14C103.712 2009.34 120.855 1885.48 122.884 1831.14H68.8669Z" fill="#511B01"/>
<path d="M144.948 2218.14C87.7349 2254.54 4.95919 2341.81 -19.3866 2373.64H-46.7756V2165.64C-46.7756 2165.64 -41.3739 2124.84 -9.11572 2111.64C23.1425 2098.44 71.0225 2032.98 85.9851 2010.64C90.1695 2041.14 -1.12726 2179.14 -14.4414 2196.64C-25.0927 2210.64 -10.0033 2213.48 -1.12726 2213.14C44.5211 2243.64 203.53 2133.14 284.175 2079.14C255.645 2114.64 202.16 2181.74 144.948 2218.14Z" fill="#75340A"/>
<path d="M281.338 1991.74C125.314 1903.77 1.94055 1912.42 -40.243 1927.74V1320.2C88.3895 1296.37 260.429 1330.13 330.37 1349.99C357.671 1349.99 436.706 1395.15 534.44 1575.79C632.174 1756.44 611.868 1897.71 589.498 1945.76C551.788 1997.74 437.363 2079.7 281.338 1991.74Z" fill="#859A01"/>
<path d="M407.889 1502.98C260.849 1453.84 48.2329 1432.49 -39.6952 1427.95H-49.8302V1462.52C-34.0342 1464.85 5.28237 1468.11 36.1805 1462.52C74.8031 1455.53 208.75 1502.98 240.524 1509.96C265.944 1515.55 453.725 1566.48 542.931 1591.97L524.305 1557.4L504.583 1523.57C487.271 1525.63 431.72 1510.45 407.889 1502.98Z" fill="#A7BC21"/>
<path d="M57.622 1615.86C212.442 1594.74 431.285 1613.44 521.354 1625.43L558.819 1625.43L571.419 1655.23L582.102 1685.75C565.768 1685.1 471.456 1656.79 440.532 1645.46C401.877 1631.29 260.571 1653.19 227.482 1654.15C201.011 1654.93 4.48931 1670.18 -89.0016 1678.72L-66.5239 1647.96L-43.004 1618.14C-25.5693 1623.42 32.5791 1618.8 57.622 1615.86Z" fill="#A7BC21"/>
<path d="M383.236 1850.21C145.036 1731.65 3.49276 1739.27 -37.5039 1757.9L-56.6782 1762.32L-57.2261 1828.15C25.4976 1811.6 150.131 1828.15 150.131 1828.15C220.912 1822.56 435.19 1919.04 553.614 1982.54L562.928 1974.82L571.693 1966.36L576.897 1961.21L581.554 1955.69L584.841 1952.02L587.854 1947.97L383.236 1850.21Z" fill="#A7BC21"/>
</g>
<defs>
<clipPath id="clip0_1_6">
<rect width="1440" height="5000" fill="white"/>
</clipPath>
</defs>
</svg>
