<svg width="1920" height="5000" viewBox="0 0 1920 5000" fill="none" xmlns="http://www.w3.org/2000/svg">
<g clip-path="url(#clip0_1_6)">
<rect width="1920" height="5000" fill="white"/>
<path d="M758.5 1727.5C705.5 1727.5 505.833 1819.83 396.5 1867L382 2046L1058 2164L1784 2108.5L2020.5 2072.5V1727.5H1921.5C1814.67 1688.83 1611.62 1606.5 1545.5 1606.5C1403 1606.5 1150.76 1895.69 1089 1879.5C1016.5 1860.5 811.5 1727.5 758.5 1727.5Z" fill="#92FCD1"/>
<path d="M155 1657.5C79 1637.5 27 1689.17 10.5 1717.5H0.5V1954.5L557 2074C561.167 2047.5 563.5 1984.5 539.5 1944.5C515.5 1904.5 428.167 1901.17 387.5 1904.5C404.833 1884.5 435 1840.5 417 1824.5C314.5 1684.5 250 1682.5 155 1657.5Z" fill="#859B00"/>
<path d="M130 1769.5C58 1782 23.6667 1743.83 10.5 1722.5H-12V1992L549.5 2064.5C556.167 2040.33 565.5 1992 549.5 1992C329.9 2014 340 1969.5 370 1897C285 1937 187.534 1924.99 150 1897C93 1854.5 150 1802 130 1769.5Z" fill="#5E6E00"/>
<path d="M1237.5 2127C992.3 2152.6 311 2002.33 1 1924V2017C35 2025.67 129.1 2050.1 233.5 2078.5C364 2114 578.5 2127 918 2173C1189.6 2209.8 1706.5 2157.67 1931 2127C2033.33 2059.33 2176.6 1945.3 1931 2030.5C1624 2137 1544 2095 1237.5 2127Z" fill="#859B00"/>
</g>
<defs>
<clipPath id="clip0_1_6">
<rect width="1920" height="5000" fill="white"/>
</clipPath>
</defs>
</svg>
